<?xml version="1.0" encoding="utf-8"?>
<!-- Generator: Adobe Illustrator 24.3.0, SVG Export Plug-In . SVG Version: 6.00 Build 0)  -->
<svg version="1.1" id="Layer_1" xmlns="http://www.w3.org/2000/svg" xmlns:xlink="http://www.w3.org/1999/xlink" x="0px" y="0px"
	 viewBox="0 0 79.3 21.9" style="enable-background:new 0 0 79.3 21.9;" xml:space="preserve">
<style type="text/css">
	.st0{display:none;}
	.st1{fill:#FFFFFF;}
</style>
<g id="Layer_1_1_" class="st0">
	
		<image style="display:inline;overflow:visible;enable-background:new    ;" width="153" height="46" xlink:href="6207D52A.jpeg"  transform="matrix(4.2185 0 0 4.2185 -283.3015 -86.5362)">
	</image>
</g>
<g id="Layer_2_1_">
	<g>
		<polygon class="st1" points="1.4,21.9 1.4,7.2 0,5.6 4.6,5.6 13,15.7 13,5.6 16.8,5.6 16.8,21.9 12.8,21.9 5.2,12.7 5.2,21.9 		
			"/>
		<rect x="21.3" y="5.6" class="st1" width="4.1" height="16.2"/>
		<polygon class="st1" points="28.7,5.6 30,7.8 30,21.9 33.7,21.9 33.7,12.6 38.1,21.9 41.4,21.9 45.9,12.2 45.9,21.9 50,21.9 
			50,5.6 45.1,5.6 39.7,17.3 34.6,5.6 		"/>
		<polygon class="st1" points="54.5,5.6 54.5,21.9 65.2,21.9 65.2,18.7 58.3,18.7 58.3,15.4 65.2,15.4 65.2,11.9 58.3,11.9 58.3,9 
			65.2,9 65.2,5.6 		"/>
		<path class="st1" d="M78.7,9.3V5.6c0,0-10.3-3-10.3,4.2s7.2,3.8,7.2,7.3c0,1.6-1.5,2.2-3,2c-1.9-0.2-3.9-1.4-3.9-1.4l-0.1,3.2
			c0,0,1.4,0.8,4.5,0.8s6.1-1.9,6.1-3.8s0.4-3.1-2.6-4.6S72,10.5,72,9.2C72.1,6.7,77.3,7.5,78.7,9.3z"/>
		<polygon class="st1" points="18.4,3.6 21.3,3.6 23.2,1.7 24.9,3.5 28.1,3.5 24.7,0 21.7,0 		"/>
	</g>
</g>
</svg>
