<?xml version="1.0" encoding="utf-8"?>
<!-- Generator: Adobe Illustrator 24.3.0, SVG Export Plug-In . SVG Version: 6.00 Build 0)  -->
<svg version="1.1" id="Layer_1" xmlns="http://www.w3.org/2000/svg" xmlns:xlink="http://www.w3.org/1999/xlink" x="0px" y="0px"
	 viewBox="0 0 256 256" style="enable-background:new 0 0 256 256;" xml:space="preserve">
<style type="text/css">
	.st0{fill:#FFFFFF;}
</style>
<path class="st0" d="M0.1,128c0.7-36.3,13.5-66.7,38.5-91S93.5,0.3,128.1,0c37.3,0.7,67.9,13.4,91.8,38.3S255.8,93,256.1,128
	c-0.7,36-13.5,66.3-38.5,90.8c-25,24.5-54.8,36.9-89.5,37.2c-12,0-24-1.8-36-5.5c2.3-3.7,4.7-7.8,7-12.5c2.7-5.7,6-16.3,10-32
	c1-4.3,2.5-10.2,4.5-17.5c2.3,4,6.3,7.7,12,11c15,7,30.8,6.3,47.5-2c17.3-10,29.3-25.5,36-46.5c6-22,5.2-42.4-2.3-61.2
	C199.4,70.9,186,57.3,166.6,49c-24.3-7-48-6.2-71,2.3s-39,23.1-48,43.8c-2.3,7.7-3.7,15.3-4.3,22.8s-0.3,14.8,0.7,22
	c1,7.2,3.5,13.6,7.5,19.3s9.3,10,16,13c1.7,0.7,3,0.7,4,0c1.3-0.7,2.7-3.3,4-8c1.3-4.7,1.8-7.8,1.5-9.5c-0.3-0.7-1-1.8-2-3.5
	c-7-11.3-9.3-23.2-7-35.7c2.3-12.5,7.5-23.1,15.5-31.7c12.3-11,26.8-17,43.2-18c16.5-1,30.6,3.5,42.2,13.5
	c6.3,7.3,10.4,16.2,12.2,26.5c1.8,10.3,1.8,20.3,0,29.8c-1.8,9.5-5.1,18.4-9.8,26.8c-8.3,13-18.2,19.7-29.5,20
	c-6.7-0.3-12.1-2.9-16.3-7.8c-4.2-4.8-5.4-10.4-3.7-16.7c0.7-3.7,2.7-10.8,6-21.5c3.3-10.7,5.2-18.7,5.5-24
	c-1-12.7-6.8-19.2-17.5-19.5c-8.3,1-14.5,4.8-18.5,11.2c-4,6.5-6.2,13.9-6.5,22.2c1,9.7,2.5,16.3,4.5,20c-3.7,15-6.5,27-8.5,36
	c-0.7,2.3-2.5,9.5-5.5,21.5c-3,12-4.7,21.2-5,27.5v14c-23.7-11-42.3-26.9-56-47.7S0.1,153.3,0.1,128z"/>
</svg>
